<?xml version="1.0" encoding="UTF-8" standalone="yes"?>
<svg xmlns="http://www.w3.org/2000/svg" xmlns:xlink="http://www.w3.org/1999/xlink" width="412.853pt" height="406.134pt" version="1.1" viewBox="577.796 401.003 412.853 406.134">
  <!--
	Exported with Concepts: Smarter Sketching
	Version: 3531 on iOS 18.3
	https://concepts.app/
	-->
  <title>B8308C29-128B-4133-8EF2-C5266BA7F4CC</title>
  <desc>Drawing exported from Concepts: Smarter Sketching</desc>
  <defs></defs>
  <g id="New_Layer_1" opacity="1.000">
    <path id="STROKE_0f6a15a4-e73b-4dc2-98c3-d3e90b939457" opacity="1.000" fill="none" stroke="#000000" stroke-width="5.016" stroke-opacity="1.000" stroke-linecap="round" stroke-linejoin="round" d="M 749.266 507.093 Q 749.236 507.094 749.240 507.093 Q 749.245 507.092 750.563 507.083 Q 751.042 507.076 748.575 507.103 Q 749.742 507.086 749.697 507.089 Q 750.044 507.104 753.328 507.105 Q 756.612 507.107 760.862 507.432 Q 765.111 507.758 768.270 508.077 Q 771.429 508.397 776.666 509.300 Q 781.903 510.203 785.639 511.145 Q 789.375 512.086 791.057 512.544 Q 792.739 513.001 795.527 513.891 Q 798.315 514.780 801.303 515.811 Q 804.291 516.842 808.536 518.640 Q 812.782 520.438 815.090 521.578 Q 817.399 522.718 818.917 523.531 Q 820.435 524.344 821.552 524.899 Q 822.669 525.454 826.675 527.841 Q 830.681 530.228 834.007 532.520 Q 837.333 534.812 840.094 536.952 Q 842.854 539.093 844.458 540.447 Q 846.062 541.801 846.666 542.354 Q 847.271 542.908 848.648 544.072 Q 850.025 545.236 853.721 548.920 Q 857.416 552.604 859.810 555.410 Q 862.204 558.217 863.669 560.065 Q 865.134 561.913 867.055 564.464 Q 868.976 567.016 871.548 571.008 Q 874.121 575.000 875.808 578.095 Q 877.495 581.190 878.585 583.418 Q 879.675 585.645 880.787 588.053 Q 881.898 590.461 883.795 595.202 Q 885.691 599.943 887.298 605.874 Q 888.904 611.806 889.515 614.972 Q 890.125 618.138 890.569 621.053 Q 891.012 623.968 891.478 628.240 Q 891.944 632.513 892.032 638.458 Q 892.121 644.403 891.675 649.677 Q 891.229 654.951 890.716 658.595 Q 890.204 662.240 889.175 666.930 Q 888.146 671.620 887.271 674.553 Q 886.395 677.486 885.947 678.846 Q 885.498 680.206 885.301 680.844 Q 885.104 681.483 883.760 685.182 Q 882.416 688.882 880.735 692.443 Q 879.054 696.003 878.133 697.822 Q 877.211 699.642 876.403 701.118 Q 875.594 702.595 875.145 703.367 Q 874.696 704.139 874.265 704.823 Q 873.833 705.507 872.238 708.227 Q 870.644 710.947 867.272 715.537 Q 863.900 720.128 861.560 722.875 Q 859.221 725.622 857.930 727.014 Q 856.640 728.406 855.788 729.270 Q 854.937 730.134 854.082 731.072 Q 853.227 732.011 849.553 735.479 Q 845.879 738.947 842.209 741.802 Q 838.539 744.656 836.648 745.998 Q 834.758 747.340 833.920 747.957 Q 833.083 748.573 830.706 750.073 Q 828.329 751.572 826.645 752.606 Q 824.960 753.640 822.331 755.031 Q 819.701 756.423 817.849 757.491 Q 815.997 758.558 809.816 761.242 Q 803.634 763.925 798.277 765.748 Q 792.920 767.571 787.887 768.775 Q 782.853 769.980 779.599 770.742 Q 776.345 771.503 770.141 772.251 Q 763.936 772.998 760.754 773.178 Q 757.572 773.358 754.714 773.427 Q 751.856 773.496 747.016 773.442 Q 742.176 773.387 734.734 772.681 Q 727.292 771.976 720.091 770.376 Q 712.890 768.776 709.343 767.712 Q 705.795 766.648 703.659 765.913 Q 701.523 765.178 698.399 764.065 Q 695.275 762.951 690.386 760.772 Q 685.498 758.593 682.173 756.806 Q 678.849 755.020 677.031 753.973 Q 675.213 752.927 672.843 751.470 Q 670.472 750.014 668.099 748.378 Q 665.726 746.742 664.217 745.637 Q 662.708 744.532 660.070 742.396 Q 657.431 740.261 655.106 738.372 Q 652.782 736.483 648.004 731.720 Q 643.227 726.957 640.210 723.255 Q 637.193 719.552 635.778 717.687 Q 634.363 715.822 632.633 713.363 Q 630.903 710.904 629.424 708.499 Q 627.944 706.094 627.360 705.004 Q 626.775 703.915 626.028 702.767 Q 625.281 701.619 622.844 696.639 Q 620.407 691.660 618.580 687.001 Q 616.753 682.343 614.935 676.687 Q 613.117 671.031 611.801 663.734 Q 610.486 656.438 610.154 652.110 Q 609.822 647.782 609.802 645.876 Q 609.783 643.970 609.629 642.840 Q 609.475 641.710 609.770 635.196 Q 610.066 628.681 610.514 625.412 Q 610.962 622.144 611.205 620.628 Q 611.448 619.112 611.606 618.263 Q 611.763 617.415 611.911 616.729 Q 612.059 616.043 612.246 614.932 Q 612.434 613.820 613.396 610.187 Q 614.358 606.553 615.006 604.023 Q 615.655 601.492 617.925 595.540 Q 620.195 589.589 621.968 585.996 Q 623.742 582.404 624.453 581.022 Q 625.164 579.639 626.964 576.529 Q 628.765 573.419 629.860 571.762 Q 630.955 570.104 632.002 568.498 Q 633.048 566.892 635.195 564.005 Q 637.341 561.118 638.714 559.470 Q 640.086 557.823 640.655 557.219 Q 641.224 556.616 643.457 553.766 Q 645.691 550.915 651.107 546.030 Q 656.524 541.145 659.597 538.749 Q 662.670 536.354 664.001 535.362 Q 665.331 534.370 668.378 532.278 Q 671.424 530.186 674.991 528.085 Q 678.557 525.984 681.497 524.241 Q 684.437 522.499 690.224 520.053 Q 696.012 517.607 698.874 516.497 Q 701.736 515.387 705.744 514.171 Q 709.751 512.955 711.629 512.279 Q 713.507 511.603 719.703 510.410 Q 725.898 509.217 728.882 508.696 Q 731.866 508.176 736.104 507.822 Q 740.342 507.469 742.546 507.335 Q 744.750 507.201 747.751 507.077 Q 750.751 506.953 762.397 507.514 "></path>
    <circle id="STROKE_61c347bb-94d6-4a8c-aa97-4ab74b845606" opacity="1.000" fill="#ffffff" stroke="#ffffff" stroke-width="0.1" stroke-opacity="1.000" fill-opacity="1.000" cx="754.838" cy="510.603" r="2.508"></circle>
    <path id="STROKE_65ed0c75-a5aa-41d6-a55d-e6abd3a5a744" opacity="1.000" fill="none" stroke="#000000" stroke-width="5.000" stroke-opacity="1.000" stroke-linecap="round" stroke-linejoin="round" stroke-dasharray="0.500,7.500" d="M 737.293 515.358 Q 737.326 515.343 737.387 515.314 Q 738.491 514.469 735.693 516.126 Q 732.896 517.783 731.072 519.103 Q 729.249 520.424 728.590 521.007 Q 727.931 521.590 727.526 521.948 Q 727.122 522.305 726.788 522.614 Q 726.453 522.923 726.519 522.860 Q 726.586 522.797 725.969 523.384 Q 725.353 523.970 724.685 524.665 Q 724.017 525.359 723.469 525.957 Q 722.921 526.554 722.448 527.085 Q 721.975 527.615 720.795 529.055 Q 719.615 530.494 718.445 532.122 Q 717.274 533.750 716.634 534.716 Q 715.994 535.682 715.766 536.035 Q 715.537 536.388 714.895 537.409 Q 714.253 538.430 713.559 539.626 Q 712.865 540.821 712.475 541.533 Q 712.086 542.245 711.940 542.543 Q 711.795 542.841 710.423 545.369 Q 709.051 547.896 707.113 552.468 Q 705.175 557.040 704.070 560.094 Q 702.964 563.149 702.204 565.470 Q 701.443 567.792 700.940 569.467 Q 700.438 571.141 700.137 572.191 Q 699.835 573.241 699.574 574.195 Q 699.313 575.149 699.142 575.789 Q 698.971 576.429 699.053 576.458 Q 699.136 576.486 698.975 576.682 Q 698.814 576.878 696.565 586.695 Q 694.315 596.513 692.994 608.731 Q 691.673 620.950 691.469 627.807 Q 691.265 634.663 691.261 638.308 Q 691.257 641.954 691.241 645.751 Q 691.225 649.547 691.725 656.966 Q 692.225 664.386 692.683 668.981 Q 693.140 673.576 693.835 678.253 Q 694.530 682.931 694.958 685.379 Q 695.386 687.826 695.694 689.671 Q 696.003 691.517 697.093 696.339 Q 698.183 701.161 699.135 704.848 Q 700.088 708.534 701.372 712.779 Q 702.657 717.023 704.095 720.944 Q 705.532 724.865 706.677 727.640 Q 707.823 730.414 708.813 732.491 Q 709.803 734.568 710.595 736.245 Q 711.386 737.923 713.334 741.455 Q 715.281 744.988 717.160 747.745 Q 719.039 750.501 720.138 751.943 Q 721.238 753.384 721.883 754.146 Q 722.529 754.909 723.043 755.553 Q 723.557 756.198 725.498 758.259 Q 727.438 760.320 729.207 761.725 Q 730.976 763.130 731.914 763.924 Q 732.853 764.719 735.341 766.335 Q 737.829 767.952 740.912 769.015 Q 743.995 770.078 745.358 770.321 Q 746.721 770.563 747.220 770.670 Q 747.718 770.777 749.876 770.867 Q 752.034 770.957 753.317 770.974 Q 754.600 770.991 757.251 770.292 Q 759.903 769.594 761.315 769.039 Q 762.727 768.483 763.326 768.198 Q 763.925 767.913 764.562 767.570 Q 765.198 767.227 765.545 767.091 Q 765.892 766.956 767.863 765.675 Q 769.834 764.394 770.948 763.511 Q 772.063 762.628 773.425 761.432 Q 774.787 760.236 776.024 758.874 Q 777.261 757.513 777.885 756.996 Q 778.510 756.479 781.794 752.132 Q 785.079 747.786 786.965 744.474 Q 788.850 741.162 789.791 739.228 Q 790.732 737.293 791.436 736.190 Q 792.140 735.086 794.794 728.403 Q 797.448 721.721 798.670 718.139 Q 799.891 714.558 801.649 707.964 Q 803.407 701.369 804.229 697.276 Q 805.050 693.183 805.382 691.419 Q 805.713 689.654 806.510 684.871 Q 807.307 680.088 808.036 673.383 Q 808.764 666.678 809.069 661.795 Q 809.375 656.912 809.530 652.003 Q 809.685 647.093 809.686 642.717 Q 809.687 638.341 809.500 633.476 Q 809.314 628.610 809.091 626.389 Q 808.867 624.168 808.773 620.791 Q 808.678 617.414 807.308 607.230 Q 805.938 597.045 804.588 590.595 Q 803.238 584.146 802.011 579.531 Q 800.784 574.917 800.213 573.146 Q 799.642 571.374 798.349 567.055 Q 797.055 562.736 794.115 555.590 Q 791.174 548.443 788.491 543.595 Q 785.807 538.747 784.055 536.157 Q 782.303 533.567 781.506 532.482 Q 780.710 531.397 780.122 530.645 Q 779.535 529.892 779.094 529.352 Q 778.653 528.811 778.595 528.754 Q 778.537 528.698 778.658 528.845 Q 778.779 528.993 777.874 527.876 Q 776.968 526.759 774.931 524.689 Q 772.895 522.619 771.591 521.543 Q 770.287 520.468 769.474 519.822 Q 768.662 519.177 767.729 518.546 Q 766.796 517.914 765.947 517.391 Q 765.099 516.867 764.556 516.571 Q 764.014 516.275 763.496 515.991 Q 762.978 515.708 762.307 515.397 Q 761.637 515.087 760.930 514.796 Q 760.223 514.504 760.113 514.462 Q 760.003 514.420 759.825 514.357 Q 759.648 514.293 759.714 514.319 Q 759.781 514.345 759.219 514.096 Q 758.657 513.847 757.144 513.461 Q 755.632 513.076 754.932 512.956 Q 754.233 512.836 753.867 512.780 Q 753.502 512.724 753.462 512.721 Q 753.423 512.717 752.931 512.655 Q 752.440 512.592 751.746 512.543 Q 751.052 512.495 750.543 512.481 Q 750.035 512.468 749.694 512.468 Q 749.352 512.468 749.175 512.473 Q 748.998 512.478 748.449 512.501 Q 747.900 512.524 748.123 512.536 Q 748.346 512.548 747.529 512.485 Q 746.712 512.421 740.273 514.130 Q 740.329 514.060 743.456 513.196 "></path>
    <path id="STROKE_819eb506-834f-48ff-8db0-6419a91df74d" opacity="1.000" fill="none" stroke="#000000" stroke-width="5.000" stroke-opacity="1.000" stroke-linecap="round" stroke-linejoin="round" stroke-dasharray="0.500,7.500" d="M 743.225 510.836 Q 741.845 510.923 742.037 510.913 Q 740.664 510.964 733.277 511.956 Q 725.889 512.948 718.994 515.167 Q 712.100 517.385 707.998 519.073 Q 703.896 520.760 699.005 523.451 Q 694.115 526.141 691.494 527.844 Q 688.873 529.546 687.750 530.450 Q 686.628 531.354 684.558 532.430 Q 682.488 533.506 676.570 539.122 Q 670.653 544.738 667.801 547.877 Q 664.949 551.016 663.546 552.726 Q 662.142 554.437 660.517 556.593 Q 658.891 558.750 657.503 560.888 Q 656.114 563.027 655.087 564.366 Q 654.059 565.705 650.249 572.544 Q 646.439 579.382 643.570 586.000 Q 640.701 592.619 638.849 599.825 Q 636.998 607.032 636.087 610.567 Q 635.177 614.102 634.191 621.764 Q 633.204 629.426 633.041 636.276 Q 632.878 643.126 633.245 649.255 Q 633.611 655.384 634.539 661.626 Q 635.467 667.867 636.820 673.365 Q 638.173 678.862 639.182 682.026 Q 640.190 685.190 641.573 689.173 Q 642.956 693.157 645.446 698.612 Q 647.936 704.066 650.263 708.171 Q 652.590 712.276 653.974 714.451 Q 655.358 716.625 657.113 719.096 Q 658.868 721.568 660.411 723.712 Q 661.955 725.857 665.605 730.026 Q 669.255 734.194 673.164 738.004 Q 677.073 741.814 682.053 745.678 Q 687.032 749.543 691.501 752.502 Q 695.971 755.462 701.468 758.023 Q 706.965 760.584 710.017 761.713 Q 713.069 762.842 715.452 763.800 Q 717.835 764.757 724.271 766.243 Q 730.707 767.728 734.883 768.246 Q 739.059 768.764 742.971 769.012 Q 746.882 769.260 751.710 769.063 Q 756.538 768.866 759.176 768.609 Q 761.814 768.351 766.158 767.564 Q 770.503 766.777 774.035 766.116 Q 777.567 765.456 783.814 763.044 Q 790.061 760.632 793.110 759.208 Q 796.159 757.784 797.306 757.208 Q 798.453 756.633 801.498 754.926 Q 804.544 753.218 808.428 750.582 Q 812.312 747.946 813.736 746.870 Q 815.159 745.793 817.627 743.763 Q 820.095 741.732 821.403 740.551 Q 822.711 739.371 823.894 738.240 Q 825.077 737.110 825.829 736.363 Q 826.581 735.615 827.080 735.104 Q 827.579 734.593 827.634 734.525 Q 827.688 734.457 827.828 734.343 Q 827.969 734.228 830.383 731.577 Q 832.797 728.926 834.874 726.374 Q 836.951 723.822 839.461 720.367 Q 841.970 716.912 843.711 714.059 Q 845.451 711.207 846.339 709.674 Q 847.227 708.141 848.220 706.342 Q 849.214 704.544 850.565 701.734 Q 851.915 698.924 852.471 697.735 Q 853.026 696.546 854.537 692.998 Q 856.048 689.450 857.381 685.293 Q 858.715 681.136 859.429 678.696 Q 860.144 676.256 861.081 672.471 Q 862.018 668.686 862.849 663.422 Q 863.680 658.159 863.970 656.010 Q 864.261 653.860 864.592 648.060 Q 864.923 642.260 864.913 637.433 Q 864.904 632.606 864.258 625.841 Q 863.613 619.075 862.789 614.845 Q 861.965 610.614 861.610 608.809 Q 861.254 607.004 860.177 603.015 Q 859.099 599.026 858.310 596.449 Q 857.520 593.872 855.879 589.533 Q 854.237 585.193 853.157 582.790 Q 852.077 580.387 851.421 579.130 Q 850.765 577.873 850.560 577.393 Q 850.355 576.913 847.685 571.615 Q 845.016 566.318 840.008 559.555 Q 834.999 552.792 832.765 550.227 Q 830.531 547.663 827.648 544.708 Q 824.764 541.753 822.771 539.945 Q 820.778 538.138 817.536 535.463 Q 814.295 532.788 810.633 530.245 Q 806.972 527.703 803.211 525.505 Q 799.450 523.307 796.190 521.685 Q 792.930 520.062 788.619 518.304 Q 784.307 516.546 780.337 515.443 Q 776.366 514.341 774.578 513.691 Q 772.791 513.041 765.492 511.969 Q 758.192 510.896 754.266 510.759 Q 750.340 510.622 746.526 510.668 Q 742.712 510.715 734.490 511.719 "></path>
    <path id="STROKE_bc9683eb-1025-497f-b9a8-0a1fbd36568e" opacity="1.000" fill="none" stroke="#48d1ec" stroke-width="5.016" stroke-opacity="1.000" stroke-linecap="round" stroke-linejoin="round" d="M 670.966 504.467 Q 672.646 503.599 672.855 503.495 Q 673.064 503.391 673.146 503.350 Q 673.229 503.309 673.960 502.946 Q 674.690 502.584 674.946 502.460 Q 675.202 502.336 675.352 502.263 Q 675.503 502.190 675.423 502.227 Q 675.344 502.263 675.897 501.991 Q 676.451 501.719 677.828 501.090 Q 679.205 500.460 680.516 499.871 Q 681.827 499.282 684.134 498.323 Q 686.440 497.363 688.253 496.675 Q 690.066 495.988 691.457 495.482 Q 692.847 494.976 694.425 494.436 Q 696.002 493.896 697.472 493.433 Q 698.942 492.971 699.714 492.737 Q 700.487 492.503 701.079 492.360 Q 701.672 492.218 701.386 492.222 Q 701.101 492.227 705.726 491.034 Q 710.351 489.841 713.417 489.191 Q 716.483 488.540 718.148 488.241 Q 719.813 487.942 721.162 487.717 Q 722.511 487.492 723.172 487.392 Q 723.833 487.292 723.959 487.273 Q 724.086 487.254 724.459 487.199 Q 724.831 487.145 725.180 487.095 Q 725.529 487.046 726.014 486.979 Q 726.498 486.912 726.707 486.886 Q 726.915 486.859 726.716 486.885 Q 726.516 486.910 727.134 486.828 Q 727.753 486.746 728.415 486.666 Q 729.078 486.586 729.697 486.516 Q 730.316 486.445 730.297 486.447 Q 730.277 486.450 730.363 486.441 Q 730.450 486.432 730.401 486.437 Q 730.352 486.441 730.809 486.390 Q 731.267 486.339 731.971 486.269 Q 732.675 486.199 733.337 486.137 Q 733.999 486.076 733.947 486.081 Q 733.894 486.086 734.072 486.070 Q 734.250 486.054 734.573 486.026 Q 734.897 485.997 735.019 485.988 Q 735.140 485.979 735.156 485.978 Q 735.171 485.976 735.218 485.974 Q 735.265 485.972 735.579 485.935 Q 735.894 485.898 740.669 485.613 Q 740.147 485.601 735.887 485.946 Q 731.628 486.292 727.733 486.784 Q 723.838 487.275 718.424 488.197 Q 713.010 489.119 706.184 490.904 Q 699.357 492.689 693.632 494.725 Q 687.907 496.762 684.105 498.318 Q 680.302 499.875 676.270 501.882 Q 672.239 503.890 669.822 504.964 Q 667.405 506.039 661.464 509.797 Q 655.523 513.556 652.776 515.481 Q 650.028 517.406 648.504 518.559 Q 646.979 519.713 646.203 520.332 Q 645.428 520.952 645.181 521.106 Q 644.935 521.260 641.926 523.740 Q 638.917 526.219 636.273 528.655 Q 633.630 531.092 632.680 532.024 Q 631.731 532.956 630.973 533.696 Q 630.214 534.436 628.763 535.950 Q 627.313 537.465 626.460 538.390 Q 625.607 539.315 625.237 539.754 Q 624.866 540.193 624.570 540.467 Q 624.274 540.741 621.400 544.156 Q 618.526 547.571 616.664 550.050 Q 614.802 552.529 612.741 555.573 Q 610.680 558.617 608.250 562.331 Q 605.819 566.044 601.903 573.555 Q 597.987 581.065 595.136 588.724 Q 592.285 596.382 590.513 602.724 Q 588.740 609.066 587.293 616.980 Q 585.846 624.894 585.443 632.089 Q 585.039 639.285 584.989 643.683 Q 584.939 648.082 585.437 654.224 Q 585.935 660.366 586.489 663.886 Q 587.044 667.406 587.267 669.080 Q 587.490 670.755 588.589 675.678 Q 589.688 680.602 590.561 683.644 Q 591.434 686.687 591.911 688.199 Q 592.389 689.711 592.677 690.600 Q 592.965 691.490 593.575 693.223 Q 594.185 694.956 594.603 696.068 Q 595.021 697.181 595.247 697.762 Q 595.473 698.344 595.643 698.776 Q 595.813 699.208 596.046 699.780 Q 596.278 700.351 596.229 700.230 Q 596.180 700.108 596.610 701.166 Q 597.040 702.224 597.805 703.978 Q 598.570 705.732 599.229 707.131 Q 599.889 708.530 600.215 709.150 Q 600.541 709.769 600.811 710.391 Q 601.081 711.014 603.097 714.862 Q 605.112 718.709 607.605 722.721 Q 610.098 726.733 611.958 729.445 Q 613.818 732.158 615.576 734.513 Q 617.334 736.868 618.636 738.475 Q 619.938 740.083 620.608 740.889 Q 621.279 741.694 622.021 742.570 Q 622.764 743.447 623.978 744.820 Q 625.192 746.194 626.276 747.361 Q 627.360 748.528 627.985 749.174 Q 628.611 749.820 629.329 750.564 Q 630.047 751.309 631.202 752.446 Q 632.356 753.583 633.176 754.363 Q 633.996 755.142 634.566 755.675 Q 635.137 756.207 635.614 756.643 Q 636.092 757.080 636.167 757.148 Q 636.243 757.216 636.879 757.779 Q 637.516 758.343 637.374 758.220 Q 637.232 758.098 639.014 759.672 Q 640.796 761.246 643.448 763.355 Q 646.100 765.465 647.831 766.778 Q 649.562 768.091 652.123 769.889 Q 654.684 771.688 657.170 773.274 Q 659.655 774.860 660.962 775.651 Q 662.269 776.442 663.272 777.026 Q 664.276 777.610 665.572 778.306 Q 666.868 779.001 668.854 780.152 Q 670.839 781.303 676.281 783.891 Q 681.724 786.479 686.446 788.289 Q 691.168 790.099 694.095 791.070 Q 697.022 792.041 698.276 792.422 Q 699.530 792.804 700.433 793.071 Q 701.335 793.338 703.030 793.810 Q 704.726 794.282 706.284 794.682 Q 707.842 795.083 710.022 795.586 Q 712.202 796.088 713.743 796.363 Q 715.283 796.638 715.350 796.673 Q 715.416 796.708 721.954 797.953 Q 728.492 799.198 737.467 799.602 Q 746.442 800.006 751.203 799.944 Q 755.964 799.881 761.484 799.447 Q 767.004 799.013 770.861 798.443 Q 774.718 797.873 777.293 797.481 Q 779.868 797.089 784.853 795.969 Q 789.838 794.849 793.467 793.881 Q 797.095 792.912 801.754 791.352 Q 806.414 789.792 809.156 788.717 Q 811.897 787.641 813.205 787.096 Q 814.513 786.551 815.265 786.228 Q 816.016 785.905 817.159 785.389 Q 818.302 784.872 819.714 784.250 Q 821.127 783.627 823.928 782.216 Q 826.728 780.806 828.207 779.990 Q 829.686 779.175 830.275 778.861 Q 830.864 778.548 833.273 777.173 Q 835.681 775.798 838.416 774.047 Q 841.151 772.297 843.047 770.974 Q 844.943 769.651 846.613 768.595 Q 848.283 767.539 852.500 764.084 Q 856.718 760.630 859.394 758.296 Q 862.071 755.963 865.516 752.581 Q 868.961 749.199 872.448 745.432 Q 875.934 741.665 879.605 736.860 Q 883.275 732.055 885.131 729.358 Q 886.987 726.660 889.090 723.311 Q 891.192 719.961 892.818 717.015 Q 894.443 714.068 895.046 712.931 Q 895.649 711.794 896.544 709.966 Q 897.438 708.138 898.002 706.899 Q 898.566 705.659 898.848 705.066 Q 899.130 704.472 900.446 701.446 Q 901.762 698.420 903.165 694.541 Q 904.567 690.661 905.332 688.193 Q 906.097 685.726 906.419 684.620 Q 906.741 683.515 907.072 682.295 Q 907.404 681.075 907.604 680.241 Q 907.806 679.407 907.980 678.832 Q 908.154 678.258 908.904 674.839 Q 909.653 671.420 909.970 669.373 Q 910.287 667.327 910.563 666.137 Q 910.839 664.948 911.486 659.229 Q 912.134 653.511 912.286 649.818 Q 912.438 646.126 912.446 643.706 Q 912.454 641.287 912.440 640.433 Q 912.427 639.579 912.421 639.026 Q 912.414 638.474 912.353 636.912 Q 912.291 635.350 912.277 634.949 Q 912.263 634.547 912.172 633.068 Q 912.080 631.589 912.023 630.881 Q 911.967 630.172 911.912 629.525 Q 911.858 628.878 911.857 628.879 Q 911.757 627.799 911.750 627.718 Q 911.742 627.637 911.758 627.809 Q 911.958 629.351 911.137 622.391 Q 911.152 622.280 911.839 628.679 "></path>
    <path id="STROKE_94570e2c-1bbd-437a-b3e7-5c624719bfa9" opacity="1.000" fill="none" stroke="#000000" stroke-width="5.000" stroke-opacity="1.000" stroke-linecap="round" stroke-linejoin="round" stroke-dasharray="0.500,7.500" d="M 629.800 580.233 Q 630.094 580.457 640.085 583.066 Q 640.064 583.061 639.779 582.993 Q 640.653 583.201 640.615 583.192 Q 641.274 583.331 640.688 583.200 Q 640.101 583.069 642.457 583.627 Q 644.812 584.185 647.863 584.768 Q 650.915 585.351 653.753 585.864 Q 656.591 586.377 662.269 587.318 Q 667.947 588.258 687.931 590.467 L 687.892 590.463 Q 686.992 590.376 690.297 590.698 L 690.264 590.694 L 690.353 590.703 Q 690.320 590.700 690.292 590.697 L 690.431 590.710 L 690.395 590.707 Q 690.809 590.747 691.198 590.783 Q 691.587 590.820 691.972 590.855 Q 692.357 590.891 692.632 590.916 Q 692.906 590.941 692.732 590.925 Q 692.558 590.909 693.325 590.979 Q 694.092 591.049 694.638 591.097 Q 695.184 591.145 695.837 591.202 Q 696.490 591.259 696.649 591.270 Q 696.808 591.280 696.586 591.268 Q 696.363 591.255 698.721 591.444 Q 701.079 591.632 702.103 591.717 Q 703.126 591.802 706.604 592.049 Q 710.082 592.296 712.143 592.424 Q 714.203 592.552 715.060 592.603 Q 715.916 592.654 716.483 592.687 Q 717.049 592.719 716.961 592.714 Q 716.873 592.709 717.044 592.709 Q 717.215 592.710 716.942 592.713 Q 716.670 592.715 722.556 593.014 Q 728.441 593.312 732.355 593.451 Q 736.270 593.590 738.083 593.648 Q 739.896 593.706 740.492 593.722 Q 741.088 593.738 741.803 593.757 Q 742.518 593.777 742.614 593.779 Q 742.710 593.781 742.713 593.782 Q 742.716 593.783 744.163 593.818 Q 745.610 593.854 746.588 593.874 Q 747.566 593.895 747.752 593.899 Q 747.937 593.903 748.722 593.917 Q 749.507 593.931 750.168 593.944 Q 750.829 593.958 753.174 593.991 Q 755.518 594.024 757.030 594.036 Q 758.541 594.048 760.149 594.059 Q 761.756 594.070 764.565 594.077 Q 767.374 594.084 771.317 594.055 Q 775.261 594.027 778.052 593.983 Q 780.843 593.939 782.733 593.898 Q 784.624 593.858 785.903 593.826 Q 787.181 593.794 787.442 593.769 Q 787.702 593.745 789.323 593.739 Q 790.943 593.734 798.876 593.393 Q 806.810 593.051 810.776 592.809 Q 814.742 592.567 817.442 592.383 Q 820.141 592.198 823.183 591.959 Q 826.225 591.720 829.627 591.416 L 829.559 591.422 L 829.789 591.401 L 829.721 591.408 L 829.774 591.403 L 829.695 591.410 L 829.928 591.389 Q 829.906 591.391 829.890 591.392 L 830.057 591.377 L 829.990 591.383 Q 830.223 591.362 830.436 591.342 L 830.369 591.349 Q 830.190 591.366 831.820 591.213 L 831.791 591.216 Q 833.437 591.059 833.007 591.100 Q 834.551 590.948 834.187 590.984 Q 836.129 590.804 840.856 590.271 Q 845.583 589.738 849.300 589.220 Q 853.017 588.702 855.198 588.359 Q 857.378 588.016 858.993 587.744 Q 860.608 587.472 862.064 587.206 Q 863.519 586.940 864.360 586.775 Q 865.201 586.611 865.700 586.512 Q 866.199 586.412 866.533 586.344 Q 866.867 586.276 866.904 586.268 Q 866.940 586.260 867.017 586.236 Q 867.094 586.213 867.008 586.241 Q 866.921 586.270 868.573 585.922 Q 870.224 585.575 872.251 585.079 Q 874.277 584.584 875.128 584.358 Q 875.980 584.132 876.250 584.057 Q 876.520 583.983 876.563 583.970 Q 876.607 583.957 876.475 583.998 Q 876.344 584.039 877.257 583.777 Q 878.169 583.515 878.571 583.394 Q 878.972 583.273 879.011 583.261 Q 879.051 583.249 878.832 583.321 Q 878.614 583.392 881.467 582.474 Q 881.326 582.539 877.590 583.681 "></path>
    <circle id="STROKE_64938ccd-cdf3-4381-a074-bfe5c588158b" opacity="1.000" fill="#000000" stroke="#000000" stroke-width="0.1" stroke-opacity="1.000" fill-opacity="1.000" cx="624.726" cy="693.369" r="1.250"></circle>
    <path id="STROKE_eb5e94ca-8239-4013-8f8e-cc403a3a123a" opacity="1.000" fill="none" stroke="#000000" stroke-width="5.000" stroke-opacity="1.000" stroke-linecap="round" stroke-linejoin="round" stroke-dasharray="0.500,7.500" d="M 617.933 645.779 Q 619.231 645.774 612.587 645.797 Q 611.704 645.800 625.957 645.751 Q 640.209 645.702 648.371 645.674 Q 656.533 645.647 660.357 645.633 Q 664.182 645.620 668.096 645.607 Q 672.009 645.594 686.866 645.543 Q 701.723 645.492 710.219 645.463 Q 718.715 645.434 722.358 645.421 Q 726.000 645.409 727.847 645.403 Q 729.694 645.396 747.810 645.334 Q 765.927 645.272 775.727 645.239 Q 785.528 645.205 792.673 645.181 Q 799.819 645.156 803.985 645.142 Q 808.151 645.128 820.526 645.086 Q 832.901 645.043 839.232 645.022 Q 845.563 645.000 848.619 644.990 Q 851.674 644.979 861.036 644.947 Q 870.398 644.915 885.916 644.862 Q 885.838 644.862 885.438 644.864 Q 886.290 644.861 886.144 644.861 Q 887.771 644.856 887.343 644.857 Q 888.613 644.853 888.464 644.853 Q 890.213 644.847 889.664 644.849 Q 890.918 644.845 891.008 644.845 Q 891.099 644.844 890.864 644.845 Q 890.623 644.846 891.584 644.843 L 886.760 644.859 "></path>
    <path id="STROKE_db2d4f53-d4d3-4190-91bb-da12728b147f" opacity="1.000" fill="none" stroke="#000000" stroke-width="5.000" stroke-opacity="1.000" stroke-linecap="round" stroke-linejoin="round" stroke-dasharray="0.500,7.500" d="M 845.592 696.035 Q 845.497 695.936 841.656 695.488 Q 837.813 695.040 835.371 694.771 Q 832.928 694.502 831.466 694.368 Q 831.351 694.356 832.776 694.495 L 832.725 694.490 L 833.070 694.525 L 833.018 694.520 L 833.278 694.546 Q 833.226 694.540 833.164 694.534 L 833.461 694.564 L 833.409 694.559 L 833.708 694.589 L 833.656 694.584 L 833.858 694.604 L 833.806 694.599 L 834.108 694.630 L 834.056 694.625 Q 834.271 694.647 834.628 694.684 L 834.566 694.678 Q 834.874 694.710 835.093 694.733 L 835.041 694.728 Q 835.290 694.754 835.512 694.778 L 835.408 694.767 L 835.660 694.794 L 835.608 694.788 L 835.780 694.807 Q 834.548 694.676 829.387 694.153 Q 824.225 693.630 806.661 692.674 Q 806.995 692.688 809.815 692.824 Q 808.045 692.737 807.494 692.716 Q 806.942 692.694 806.940 692.704 Q 806.939 692.715 802.542 692.507 Q 798.145 692.299 788.401 692.102 Q 778.657 691.904 769.755 691.974 Q 760.854 692.043 755.865 692.140 Q 750.876 692.238 744.285 692.487 Q 737.693 692.736 732.605 692.901 Q 727.517 693.065 718.147 693.763 Q 708.777 694.461 702.831 694.971 Q 696.886 695.481 691.857 696.043 Q 686.828 696.605 683.509 697.030 Q 680.190 697.455 678.730 697.660 Q 677.270 697.866 676.532 697.972 Q 675.794 698.079 675.083 698.185 Q 674.373 698.290 673.859 698.377 Q 673.346 698.464 672.270 698.614 Q 671.194 698.764 667.630 699.414 Q 664.065 700.065 662.165 700.384 Q 660.265 700.703 656.092 701.713 Q 651.919 702.724 649.923 703.350 Q 647.927 703.976 646.495 704.428 Q 645.062 704.880 643.581 705.575 Q 642.099 706.270 641.400 706.686 Q 640.702 707.101 640.147 707.491 Q 639.592 707.881 639.751 707.758 Q 639.911 707.636 639.856 707.677 Q 639.802 707.719 639.851 707.684 Q 639.900 707.649 639.855 707.684 Q 639.810 707.720 639.782 707.736 Q 639.755 707.752 639.125 708.364 Q 638.495 708.975 638.522 708.966 Q 638.550 708.956 638.468 709.080 Q 638.385 709.204 638.204 709.516 Q 638.023 709.829 638.062 709.671 Q 638.101 709.513 638.087 709.552 Q 638.073 709.591 638.067 709.592 Q 638.060 709.593 638.028 709.920 Q 637.996 710.247 637.972 711.176 Q 637.968 711.159 637.952 711.089 Q 637.158 711.057 641.304 714.360 Q 641.282 714.348 641.229 714.320 L 641.358 714.389 Q 641.328 714.373 641.298 714.357 L 641.373 714.396 L 641.336 714.377 L 641.448 714.436 L 641.411 714.416 L 641.485 714.455 L 641.455 714.439 L 641.576 714.501 L 641.538 714.482 L 641.665 714.546 L 641.641 714.534 L 641.733 714.580 Q 641.709 714.568 641.694 714.560 L 641.822 714.624 Q 641.807 714.616 641.674 714.550 Q 641.690 714.558 641.782 714.604 L 641.670 714.548 Q 641.277 714.447 645.162 715.984 "></path>
    <path id="STROKE_5dd54b34-6111-42bc-bbd5-af62b95c6ce9" opacity="1.000" fill="none" stroke="#000000" stroke-width="5.000" stroke-opacity="1.000" stroke-linecap="round" stroke-linejoin="round" stroke-dasharray="0.500,7.500" d="M 840.431 695.344 Q 840.691 695.375 838.565 695.120 Q 838.294 695.042 843.140 695.705 Q 847.986 696.368 850.530 696.818 Q 853.074 697.267 854.255 697.500 Q 855.436 697.734 857.533 698.177 Q 859.629 698.619 861.395 699.136 Q 863.161 699.653 864.224 700.011 Q 865.287 700.369 866.070 700.708 Q 866.852 701.047 867.379 701.267 Q 867.907 701.487 868.890 701.896 Q 869.873 702.305 870.737 703.249 Q 871.601 704.193 871.743 704.596 Q 871.886 705.000 871.896 704.888 Q 871.905 704.777 871.877 704.923 Q 871.849 705.069 871.867 705.154 Q 871.884 705.239 871.873 705.219 Q 871.863 705.198 871.924 705.861 Q 871.985 706.524 871.078 707.450 Q 870.171 708.376 869.716 708.677 Q 869.261 708.979 868.715 709.292 Q 868.170 709.606 867.714 709.855 Q 868.028 709.690 868.330 709.526 "></path>
    <path id="STROKE_4b45c9ae-9876-4de7-8295-c16d519d7282" opacity="1.000" fill="none" stroke="#000000" stroke-width="5.016" stroke-opacity="1.000" stroke-linecap="round" stroke-linejoin="round" d="M 829.356 595.741 Q 829.818 595.020 829.663 595.094 Q 829.460 594.531 829.533 594.638 Q 829.606 594.745 829.525 594.699 Q 829.443 594.653 829.491 594.670 Q 829.538 594.687 829.483 594.679 Q 829.427 594.670 829.381 594.673 Q 829.335 594.676 829.437 594.597 Q 829.538 594.517 828.694 594.722 Q 827.850 594.926 827.716 595.024 Q 827.583 595.123 827.796 595.105 Q 826.722 597.146 827.005 596.634 Q 827.288 596.122 826.933 596.861 Q 826.578 597.600 826.497 597.712 Q 826.417 597.825 826.362 597.901 Q 826.308 597.977 825.814 598.701 Q 825.321 599.424 825.187 599.597 Q 825.053 599.771 825.152 599.621 Q 825.114 599.705 825.083 599.750 Q 825.051 599.794 825.104 599.733 Q 825.156 599.672 824.667 600.491 Q 824.178 601.310 824.246 601.174 Q 824.315 601.039 824.284 601.095 Q 824.253 601.152 824.300 601.096 Q 824.347 601.039 823.900 601.615 Q 823.452 602.191 823.119 602.576 Q 822.786 602.962 822.414 603.449 Q 822.041 603.937 822.051 603.985 Q 822.060 604.033 822.112 603.879 Q 822.163 603.726 821.407 604.884 Q 820.651 606.043 820.229 606.942 Q 819.807 607.841 819.752 608.128 Q 819.697 608.415 819.731 608.309 Q 819.764 608.203 819.552 608.737 Q 819.340 609.272 818.886 610.374 Q 818.433 611.476 818.576 611.117 Q 818.719 610.758 818.468 611.426 Q 818.217 612.094 818.112 612.420 Q 818.006 612.747 817.831 613.415 Q 817.655 614.084 817.564 614.446 Q 817.473 614.807 817.493 614.861 Q 817.513 614.915 817.412 614.924 Q 817.310 614.932 817.023 616.092 Q 816.735 617.252 816.785 617.981 Q 816.835 618.710 816.819 619.057 Q 816.804 619.404 816.810 619.948 Q 816.817 620.492 816.814 620.595 Q 816.811 620.698 816.876 620.630 Q 816.942 620.562 816.774 620.799 Q 816.606 621.037 816.868 622.561 Q 817.130 624.085 817.586 624.844 Q 818.041 625.603 818.318 626.223 Q 818.595 626.842 818.535 626.730 Q 818.475 626.619 818.517 626.669 Q 818.559 626.719 818.679 626.839 Q 818.798 626.959 819.344 627.376 Q 819.891 627.792 819.871 627.745 Q 819.852 627.697 819.736 627.749 Q 819.620 627.802 820.433 628.178 Q 821.246 628.554 821.817 628.607 Q 822.389 628.660 822.393 628.791 Q 822.396 628.921 822.242 628.624 Q 822.087 628.327 823.169 629.354 Q 824.251 630.381 824.877 631.095 Q 825.503 631.809 825.780 632.163 Q 826.058 632.516 825.938 632.347 Q 825.818 632.178 826.241 632.816 Q 826.663 633.453 826.798 633.898 Q 826.933 634.343 827.030 634.766 Q 827.127 635.189 827.111 635.115 Q 827.094 635.041 827.101 635.175 Q 827.108 635.308 827.201 635.453 Q 827.295 635.597 827.481 636.336 Q 827.668 637.074 827.807 638.476 Q 827.946 639.877 828.082 640.524 Q 828.218 641.171 828.372 641.752 Q 828.525 642.333 828.491 642.192 Q 828.457 642.052 828.518 642.292 Q 828.578 642.531 828.502 642.239 Q 828.425 641.947 828.632 642.810 Q 828.840 643.674 829.028 644.202 Q 829.215 644.730 829.417 645.394 Q 829.618 646.057 829.599 645.979 Q 829.579 645.900 829.584 646.109 Q 829.590 646.317 829.583 646.694 Q 829.577 647.072 829.609 647.158 Q 829.642 647.245 829.669 647.423 Q 829.695 647.601 829.683 647.838 Q 829.672 648.074 829.632 649.696 Q 829.593 651.318 829.666 652.871 Q 829.738 654.424 829.789 654.982 Q 829.839 655.540 829.906 655.608 Q 829.973 655.676 829.833 655.591 Q 829.693 655.507 830.017 656.194 Q 830.341 656.881 830.605 657.181 Q 830.869 657.480 831.155 657.830 Q 831.442 658.180 831.437 658.129 Q 831.432 658.078 831.440 658.157 Q 831.448 658.235 832.161 659.250 Q 832.874 660.264 833.594 660.803 Q 834.315 661.343 834.800 661.473 Q 835.286 661.603 835.267 661.587 Q 835.248 661.570 835.435 661.579 Q 835.622 661.587 835.580 661.560 Q 835.539 661.534 835.693 661.656 Q 835.848 661.778 837.277 661.763 Q 838.706 661.747 839.482 661.706 Q 840.258 661.665 840.869 661.487 Q 841.480 661.310 841.255 661.363 Q 841.031 661.416 842.008 661.206 Q 842.985 660.997 843.881 660.780 Q 844.777 660.563 844.988 660.498 Q 845.200 660.434 845.132 660.356 Q 845.063 660.278 845.106 660.523 Q 845.149 660.767 846.467 659.876 Q 847.785 658.985 848.351 657.533 Q 848.917 656.080 849.198 655.230 Q 849.480 654.381 849.527 653.593 Q 849.574 652.806 849.669 652.118 Q 849.764 651.431 849.787 651.082 Q 849.810 650.733 849.844 650.585 Q 849.878 650.437 849.859 650.594 Q 849.839 650.752 849.835 648.872 Q 849.830 646.993 850.097 644.416 Q 850.365 641.839 850.371 640.281 Q 850.378 638.723 850.371 638.147 Q 850.364 637.570 850.367 636.808 Q 850.370 636.046 850.346 635.923 Q 850.321 635.800 850.390 633.521 Q 850.459 631.243 850.422 628.151 Q 850.384 625.059 850.257 623.687 Q 850.130 622.315 850.041 621.323 Q 849.952 620.331 849.893 619.910 Q 849.835 619.489 849.812 619.413 Q 849.789 619.337 849.819 619.420 Q 849.848 619.502 849.762 619.162 Q 849.675 618.822 849.370 617.253 Q 849.065 615.684 848.898 614.508 Q 848.730 613.332 848.524 612.489 Q 848.318 611.646 848.248 611.352 Q 848.178 611.057 848.072 610.560 Q 847.966 610.064 847.924 609.877 Q 847.882 609.690 847.885 609.776 Q 847.888 609.863 847.742 609.134 Q 847.595 608.404 847.457 607.943 Q 847.318 607.482 846.846 606.710 Q 846.374 605.938 846.305 605.901 Q 846.237 605.864 846.158 605.738 Q 846.080 605.612 846.036 605.676 Q 845.993 605.740 846.109 605.762 Q 846.225 605.784 844.248 603.127 Q 842.272 600.471 841.184 599.062 Q 840.095 597.653 839.025 596.907 Q 837.955 596.161 837.285 596.063 Q 836.615 595.965 836.721 595.977 Q 836.827 595.989 836.803 595.990 Q 836.779 595.991 836.745 595.974 Q 836.711 595.957 835.202 595.620 Q 833.693 595.284 833.775 595.285 Q 833.858 595.286 833.719 595.251 Q 833.580 595.215 833.296 595.132 Q 833.012 595.048 833.002 595.056 Q 832.992 595.064 833.008 595.082 Q 833.024 595.100 832.591 594.890 Q 832.159 594.679 826.958 594.693 Q 828.312 594.581 828.094 594.613 Q 827.877 594.646 833.829 591.192 "></path>
    <path id="STROKE_6e3a3c07-2b15-4045-826d-f0d24bb05239" opacity="1.000" fill="none" stroke="#000000" stroke-width="5.016" stroke-opacity="1.000" stroke-linecap="round" stroke-linejoin="round" d="M 744.337 538.784 Q 744.337 538.784 744.247 538.916 Q 744.157 539.048 743.812 539.397 Q 743.467 539.746 743.500 539.653 Q 742.307 539.651 742.214 539.646 Q 742.121 539.641 742.301 539.698 Q 740.712 539.978 740.847 539.955 Q 740.983 539.933 740.986 539.932 Q 740.976 539.940 740.277 539.958 Q 739.578 539.977 739.663 539.969 Q 739.747 539.961 739.749 539.965 Q 739.752 539.968 739.480 539.972 Q 739.209 539.975 738.742 539.932 L 738.742 539.899 Q 738.762 539.716 737.551 539.392 Q 736.340 539.067 735.099 539.762 Q 733.859 540.457 733.313 540.817 Q 732.768 541.177 731.914 541.861 Q 731.061 542.545 731.199 542.308 Q 731.336 542.071 730.617 543.132 Q 729.899 544.193 729.911 545.172 Q 729.923 546.150 729.832 546.971 Q 729.742 547.792 730.074 548.530 Q 730.406 549.267 730.605 549.285 Q 730.805 549.302 730.986 549.430 Q 731.166 549.557 731.778 549.773 Q 732.389 549.988 732.731 550.151 Q 733.073 550.314 732.847 550.189 Q 732.622 550.063 733.170 550.348 Q 733.719 550.633 734.459 551.145 Q 735.198 551.658 735.073 551.574 Q 734.948 551.491 734.988 551.515 Q 735.029 551.539 734.981 551.494 Q 734.933 551.450 735.631 552.071 Q 736.328 552.692 736.969 552.826 Q 737.609 552.960 737.490 553.008 Q 737.371 553.056 737.407 553.003 Q 737.443 552.951 737.477 552.915 Q 737.511 552.878 737.447 552.979 Q 737.382 553.081 737.714 552.710 Q 738.047 552.339 738.410 551.887 Q 738.774 551.434 738.704 551.395 Q 739.374 550.223 739.201 550.525 Q 739.027 550.827 739.471 549.869 Q 739.915 548.911 739.961 548.808 Q 740.008 548.706 740.352 547.707 Q 740.695 546.709 740.865 546.113 Q 741.035 545.517 741.020 545.454 Q 741.006 545.391 740.984 545.519 Q 740.963 545.648 741.134 545.109 Q 741.306 544.571 741.429 543.954 Q 741.551 543.337 740.948 540.490 Q 740.869 540.471 740.304 540.402 Q 739.739 540.334 739.684 540.357 Q 739.629 540.379 739.947 540.370 Q 740.265 540.361 737.943 540.367 Q 738.942 540.846 739.941 541.326 "></path>
    <path id="STROKE_1ba11370-23c4-4c7b-8dc6-60416b6e7307" opacity="1.000" fill="none" stroke="#000000" stroke-width="5.016" stroke-opacity="1.000" stroke-linecap="round" stroke-linejoin="round" d="M 750.101 557.316 Q 750.102 557.811 750.055 558.030 Q 749.409 558.030 749.494 558.030 Q 747.610 558.030 748.257 558.030 Q 747.105 558.030 747.033 558.030 Q 746.962 558.030 747.020 558.030 Q 745.432 558.036 745.683 558.047 Q 745.933 558.057 745.819 558.057 Q 745.705 558.058 745.137 558.436 Q 744.568 558.813 744.538 558.851 Q 744.509 558.890 744.559 558.876 Q 744.609 558.863 744.203 559.128 Q 743.796 559.393 742.753 560.321 Q 741.710 561.248 741.300 561.831 Q 740.890 562.415 740.340 563.226 Q 739.790 564.038 739.823 564.005 Q 739.855 563.972 739.846 563.991 Q 739.836 564.011 739.481 564.526 Q 739.127 565.041 738.844 565.317 Q 738.560 565.593 738.215 566.497 Q 737.869 567.400 737.853 568.087 Q 737.837 568.774 737.722 569.316 Q 737.607 569.858 737.636 569.793 Q 737.665 569.729 737.644 569.901 Q 737.623 570.074 737.595 569.794 Q 737.567 569.513 737.828 571.656 Q 739.211 572.059 738.997 572.003 Q 738.782 571.947 738.875 571.976 Q 738.968 572.004 739.468 572.172 Q 739.968 572.341 740.177 572.370 Q 740.385 572.400 739.600 572.302 Q 738.815 572.204 745.859 573.730 Q 745.973 575.021 745.936 574.689 Q 745.951 575.869 745.859 575.848 Q 746.046 575.482 745.922 575.714 Q 745.799 575.945 745.920 575.754 Q 746.041 575.564 745.964 575.696 Q 745.886 575.827 745.639 576.275 Q 745.392 576.722 745.151 577.120 Q 744.910 577.519 744.870 577.471 Q 744.831 577.423 744.928 577.378 Q 745.025 577.332 743.845 578.540 Q 742.665 579.748 741.865 580.384 Q 741.064 581.019 740.329 581.403 Q 739.594 581.787 739.607 581.823 Q 739.620 581.858 739.514 581.904 Q 739.408 581.949 739.177 582.114 Q 738.946 582.278 738.922 582.271 Q 738.898 582.264 738.967 582.247 Q 739.036 582.230 738.796 582.310 Q 738.557 582.391 738.871 582.291 Q 739.184 582.191 739.084 582.232 Q 738.983 582.273 739.020 582.248 Q 739.057 582.224 739.029 582.242 Q 739.000 582.260 738.503 582.420 Q 738.005 582.581 737.062 582.818 Q 736.119 583.056 736.124 583.040 Q 736.129 583.025 736.012 583.045 Q 735.895 583.064 735.477 583.149 Q 735.059 583.233 735.120 583.207 Q 735.182 583.181 735.208 583.187 Q 735.233 583.194 734.040 583.386 Q 732.848 583.579 732.069 583.625 Q 731.291 583.670 730.744 583.725 Q 730.197 583.779 730.269 583.769 Q 730.341 583.759 730.349 583.760 Q 730.356 583.761 730.098 583.804 Q 729.840 583.846 730.071 583.806 Q 730.301 583.766 729.535 583.893 Q 728.768 584.021 728.243 584.110 Q 727.717 584.199 727.696 584.198 Q 727.674 584.197 727.615 584.219 Q 727.555 584.242 726.961 584.236 Q 726.367 584.231 726.399 584.233 Q 726.432 584.235 726.362 584.234 Q 726.293 584.233 725.686 584.233 Q 725.080 584.234 725.228 584.234 Q 725.376 584.234 725.215 584.234 Q 725.055 584.234 724.583 584.234 Q 724.110 584.234 724.129 584.234 Q 724.148 584.234 724.089 584.234 Q 724.030 584.234 723.894 584.225 Q 723.759 584.217 723.445 584.245 Q 723.131 584.272 723.171 584.268 Q 723.211 584.265 723.105 584.242 Q 723.000 584.219 722.876 584.227 Q 722.752 584.235 722.786 584.246 Q 722.819 584.258 722.351 584.139 Q 721.883 584.020 721.197 584.067 Q 720.511 584.113 719.825 584.154 Q 719.138 584.194 719.208 584.232 Q 719.278 584.271 719.242 584.280 Q 719.205 584.289 719.195 584.365 Q 719.186 584.440 719.123 584.568 Q 719.060 584.696 719.038 584.502 Q 719.015 584.308 718.673 586.301 Q 718.330 588.294 718.139 590.049 Q 717.949 591.805 717.964 592.740 Q 717.980 593.675 717.977 593.886 Q 717.974 594.098 717.975 594.101 Q 717.976 594.105 717.979 594.205 Q 717.982 594.306 717.964 594.688 Q 717.946 595.071 717.956 595.100 Q 717.966 595.129 718.006 595.446 Q 718.047 595.763 718.101 596.099 Q 718.155 596.436 718.137 596.466 Q 718.120 596.496 718.126 596.598 Q 718.133 596.700 718.130 597.182 Q 718.128 597.664 718.095 597.631 Q 718.062 597.597 718.121 597.532 Q 718.180 597.468 718.202 597.958 Q 718.224 598.448 717.912 599.068 Q 717.601 599.687 717.318 600.038 Q 717.035 600.389 716.982 600.406 Q 716.929 600.424 717.012 600.376 Q 717.096 600.327 716.516 600.844 Q 715.937 601.361 715.345 601.870 Q 714.754 602.379 714.635 602.472 Q 714.516 602.565 714.582 602.509 Q 714.648 602.454 714.684 602.428 Q 714.719 602.401 713.906 603.139 Q 713.093 603.878 713.264 603.691 Q 712.205 604.621 712.076 604.711 Q 711.947 604.800 711.981 604.762 Q 712.119 604.980 710.616 605.913 Q 709.113 606.845 708.581 607.074 Q 708.049 607.302 707.789 607.376 Q 707.529 607.449 707.533 607.453 Q 707.537 607.457 707.517 607.461 Q 707.498 607.465 707.602 607.435 Q 707.706 607.405 707.633 607.424 Q 707.560 607.442 706.789 607.678 Q 706.018 607.914 705.996 607.934 Q 705.973 607.955 705.328 608.106 Q 704.683 608.257 704.672 608.207 Q 703.010 608.207 703.634 608.207 L 703.588 608.207 Q 703.085 609.617 703.078 609.701 Q 703.070 609.785 703.106 609.807 Q 703.142 609.828 703.154 609.721 Q 703.165 609.615 702.290 611.732 Q 701.416 613.849 701.084 615.367 Q 700.752 616.886 700.814 617.558 Q 700.877 618.230 701.035 618.795 Q 701.193 619.361 701.234 619.447 Q 701.275 619.533 701.307 619.578 Q 701.339 619.624 701.734 620.483 Q 702.128 621.342 702.356 621.904 Q 702.584 622.466 702.814 623.388 Q 703.044 624.310 703.082 624.943 Q 703.120 625.577 703.115 625.492 Q 703.110 625.407 703.074 625.584 Q 703.038 625.762 703.112 625.754 Q 703.186 625.745 703.141 626.929 Q 703.095 628.113 702.726 629.395 Q 702.358 630.676 702.442 630.404 Q 702.526 630.132 702.466 630.626 Q 702.407 631.121 702.402 631.213 Q 702.396 631.306 702.348 632.037 Q 702.299 632.768 702.306 632.890 Q 702.312 633.012 702.249 632.986 Q 702.185 632.959 702.222 634.323 Q 702.259 635.688 702.427 636.679 Q 702.595 637.669 702.714 638.676 Q 702.833 639.683 703.238 640.633 Q 703.642 641.583 703.571 641.411 Q 703.501 641.239 703.465 641.203 Q 703.428 641.168 703.640 641.729 Q 703.852 642.290 704.224 643.103 Q 704.595 643.915 704.608 643.852 Q 704.620 643.789 704.706 643.890 Q 704.792 643.991 704.773 643.916 Q 704.755 643.840 705.127 644.314 Q 705.499 644.787 706.880 645.699 Q 708.261 646.612 709.087 646.884 Q 709.912 647.157 709.661 647.106 Q 709.410 647.055 709.549 647.088 Q 709.688 647.122 710.662 647.327 Q 711.636 647.532 712.017 647.610 Q 712.398 647.689 712.142 647.636 Q 712.119 647.605 712.895 647.873 Q 713.671 648.141 713.458 648.082 Q 713.245 648.023 713.901 648.230 Q 714.557 648.436 715.042 648.374 Q 715.526 648.311 715.917 648.421 Q 716.308 648.530 716.520 648.618 Q 716.731 648.706 717.484 649.188 Q 718.238 649.671 718.205 649.681 Q 718.172 649.691 718.167 649.676 Q 718.162 649.661 718.385 649.850 Q 718.608 650.038 719.099 650.435 Q 719.591 650.831 719.478 650.754 Q 719.366 650.676 719.409 650.701 Q 719.452 650.727 719.646 650.889 Q 719.839 651.051 720.285 651.520 Q 720.732 651.988 721.136 652.577 Q 721.540 653.165 721.981 653.751 Q 722.423 654.337 722.711 654.617 Q 723.000 654.896 722.674 654.640 Q 722.347 654.385 723.264 655.117 Q 724.181 655.849 724.816 656.267 Q 725.451 656.684 725.457 656.692 Q 725.462 656.700 725.425 656.671 Q 725.389 656.642 725.378 656.628 Q 725.367 656.615 725.368 656.606 Q 725.370 656.597 725.631 656.892 Q 725.892 657.187 726.632 657.480 Q 727.371 657.772 728.336 657.900 Q 729.300 658.028 729.099 657.986 Q 728.899 657.944 729.334 658.072 Q 729.770 658.201 729.913 658.167 Q 730.057 658.134 730.747 658.691 Q 731.437 659.248 731.378 659.249 Q 731.319 659.250 731.586 659.590 Q 731.852 659.931 732.006 660.215 Q 732.159 660.499 732.377 661.052 Q 732.594 661.604 732.829 662.384 Q 733.064 663.164 733.375 663.768 Q 733.687 664.372 733.701 664.319 Q 733.716 664.266 733.692 664.281 Q 733.667 664.297 734.246 665.117 Q 734.825 665.937 735.569 666.577 Q 736.313 667.217 736.921 667.343 Q 737.529 667.468 738.031 667.465 Q 738.534 667.463 739.178 667.716 Q 739.821 667.969 740.457 668.501 Q 741.093 669.034 741.574 669.558 Q 742.055 670.081 742.033 670.076 Q 742.011 670.072 742.049 670.074 Q 742.087 670.077 742.012 670.045 Q 741.937 670.012 742.425 670.401 Q 742.913 670.791 743.293 671.075 Q 743.673 671.360 743.680 671.345 Q 743.687 671.330 743.641 671.272 Q 743.595 671.215 744.160 671.700 Q 744.726 672.186 744.869 672.367 Q 745.013 672.547 745.007 672.539 Q 745.001 672.531 745.323 672.829 Q 745.646 673.128 746.103 673.194 Q 746.559 673.260 747.182 674.166 Q 747.806 675.072 747.935 675.556 Q 748.064 676.041 748.544 676.847 Q 749.023 677.653 750.217 680.263 Q 750.886 680.263 750.847 680.263 Q 752.318 680.263 752.208 680.263 Q 752.099 680.263 752.092 680.263 Q 753.834 680.263 753.291 680.263 Q 754.690 680.286 754.657 680.294 Q 754.624 680.301 754.567 680.307 Q 754.977 680.490 755.375 680.634 Q 755.773 680.778 755.927 680.770 Q 756.081 680.762 755.987 680.733 Q 755.893 680.705 757.155 681.085 Q 758.417 681.465 759.830 681.604 Q 761.243 681.743 762.162 681.509 Q 763.081 681.275 763.596 681.100 Q 764.112 680.924 763.805 681.049 Q 763.499 681.173 764.683 680.898 Q 765.868 680.623 766.414 680.304 Q 766.960 679.986 768.398 679.466 Q 769.835 678.947 770.455 678.802 Q 771.076 678.657 771.075 678.638 Q 771.075 678.619 772.090 678.319 Q 773.106 678.019 773.066 677.955 Q 773.395 677.548 773.463 677.498 Q 773.531 677.449 773.546 677.438 Q 773.562 677.427 774.169 676.810 Q 774.776 676.193 774.831 676.103 Q 774.887 676.013 774.960 675.886 Q 775.033 675.759 775.002 675.766 Q 774.971 675.772 775.480 675.397 Q 775.990 675.021 776.219 673.369 Q 776.448 671.716 776.421 670.806 Q 776.394 669.897 776.444 669.416 Q 776.493 668.935 776.571 668.954 Q 776.649 668.973 776.004 668.175 Q 775.360 667.377 774.839 666.891 Q 774.318 666.404 773.917 665.920 Q 773.517 665.435 773.524 665.470 Q 773.531 665.506 773.607 665.577 Q 773.683 665.648 772.830 664.828 Q 771.977 664.008 771.129 663.729 Q 770.281 663.450 769.512 663.388 Q 768.743 663.326 768.017 663.342 Q 767.291 663.359 767.627 663.349 Q 767.964 663.341 766.285 663.300 Q 764.606 663.260 762.756 663.573 Q 760.906 663.885 759.651 664.110 Q 758.397 664.335 757.831 664.436 Q 757.265 664.536 756.052 664.426 Q 754.839 664.316 755.148 664.452 Q 755.458 664.589 754.857 663.941 Q 754.257 663.292 753.813 662.492 Q 753.369 661.693 753.325 661.638 Q 753.282 661.584 753.336 661.645 Q 753.391 661.706 753.261 661.406 Q 753.131 661.106 751.328 659.125 Q 749.524 657.144 748.713 656.311 Q 747.902 655.479 747.687 654.761 Q 747.472 654.044 747.510 653.555 Q 747.547 653.067 747.539 652.558 Q 747.531 652.050 747.533 651.806 Q 747.536 651.562 747.535 651.635 Q 747.534 651.708 747.534 650.371 Q 747.535 649.033 747.535 647.562 Q 747.534 646.090 747.534 645.316 Q 747.534 644.542 747.534 644.162 Q 747.534 643.781 747.535 643.289 Q 747.536 642.796 747.537 642.597 Q 747.539 642.398 747.513 641.646 Q 747.488 640.893 747.481 641.003 Q 747.475 641.113 747.478 641.075 Q 747.480 641.037 747.299 640.358 Q 747.118 639.679 747.096 639.686 Q 747.007 638.976 746.612 638.672 Q 746.217 638.367 745.444 638.305 Q 744.671 638.242 744.132 638.197 Q 743.593 638.152 743.692 638.186 Q 743.791 638.219 743.689 638.076 Q 743.588 637.933 742.343 638.009 Q 741.099 638.084 740.530 638.250 Q 739.961 638.416 740.079 638.405 Q 740.196 638.394 739.770 638.579 Q 739.343 638.763 738.478 639.393 Q 737.612 640.024 736.950 640.602 Q 736.289 641.180 736.320 641.154 Q 736.352 641.127 736.355 641.136 Q 736.359 641.145 736.274 641.213 Q 736.190 641.282 735.502 641.830 Q 734.815 642.378 734.775 642.426 Q 734.735 642.473 734.667 642.540 Q 734.599 642.607 734.210 643.046 Q 733.822 643.485 733.819 643.483 Q 733.817 643.482 733.894 643.428 Q 733.971 643.375 733.740 643.616 Q 733.510 643.857 733.034 644.293 Q 732.557 644.730 732.582 644.616 Q 732.607 644.502 732.720 644.534 Q 732.834 644.566 732.258 644.561 Q 731.683 644.556 731.352 644.558 Q 731.021 644.559 731.220 644.545 Q 731.420 644.531 730.944 644.521 Q 730.469 644.511 729.611 644.606 Q 728.754 644.701 728.096 644.325 Q 727.437 643.949 727.108 643.510 Q 726.778 643.072 726.807 643.125 Q 726.835 643.179 726.343 642.449 Q 725.851 641.719 725.065 639.979 Q 724.279 638.238 723.628 636.933 Q 722.977 635.628 722.653 634.999 Q 722.330 634.369 721.991 633.384 Q 721.652 632.400 721.719 632.424 Q 721.785 632.449 721.677 632.521 Q 721.568 632.593 721.595 631.487 Q 721.621 630.381 721.804 629.799 Q 721.986 629.216 722.322 628.620 Q 722.658 628.023 722.761 627.819 Q 722.864 627.614 722.912 627.641 Q 722.959 627.669 723.090 627.391 Q 723.221 627.113 724.918 624.774 Q 726.616 622.436 727.458 621.439 Q 728.300 620.443 729.783 619.697 Q 731.266 618.952 732.262 618.908 Q 733.258 618.864 733.977 618.837 Q 734.697 618.809 734.858 618.814 Q 735.020 618.819 735.330 618.819 Q 735.640 618.820 736.189 618.934 Q 736.738 619.048 736.413 618.957 Q 736.088 618.866 736.451 619.049 Q 736.814 619.232 737.827 619.513 Q 738.839 619.795 739.856 620.392 Q 740.872 620.989 741.228 621.394 Q 741.585 621.800 742.187 622.445 Q 742.789 623.090 743.700 624.197 Q 744.612 625.304 745.262 625.934 Q 745.912 626.564 746.418 626.986 Q 746.924 627.408 747.051 627.432 Q 747.177 627.457 747.309 627.454 Q 747.442 627.451 747.203 627.487 Q 746.964 627.523 749.715 627.811 Q 752.466 628.100 753.641 628.113 Q 754.815 628.126 755.872 628.148 Q 756.928 628.170 757.348 627.872 Q 757.769 627.574 758.093 627.317 Q 758.417 627.060 758.764 626.755 Q 759.112 626.450 759.151 626.340 Q 759.191 626.230 759.164 626.484 Q 759.138 626.737 760.054 625.653 Q 760.971 624.569 761.234 623.836 Q 761.498 623.102 761.579 622.699 Q 761.660 622.296 761.706 621.977 Q 761.752 621.658 761.747 621.596 Q 761.742 621.534 761.799 621.464 Q 761.857 621.394 761.933 620.493 Q 762.008 619.592 762.033 618.330 Q 762.058 617.069 762.105 616.430 Q 762.152 615.792 762.229 615.037 Q 762.307 614.283 762.302 614.355 Q 762.298 614.427 762.415 613.687 Q 762.532 612.948 762.446 613.294 Q 762.360 613.641 762.774 611.932 Q 763.188 610.222 763.630 608.800 Q 764.072 607.377 764.265 606.842 Q 764.459 606.307 764.891 605.544 Q 765.323 604.780 765.655 604.318 Q 765.987 603.856 766.358 603.375 Q 766.730 602.895 767.557 601.995 Q 768.384 601.096 768.830 600.619 Q 769.277 600.143 769.591 599.623 Q 769.905 599.103 770.499 598.236 Q 771.093 597.368 771.397 596.985 Q 771.701 596.601 771.674 596.636 Q 771.648 596.671 771.631 596.652 Q 771.614 596.633 771.660 596.695 Q 771.706 596.758 771.659 596.467 Q 771.612 596.176 773.226 595.202 Q 774.840 594.229 775.800 593.671 Q 776.759 593.114 776.991 593.060 Q 777.222 593.006 777.959 593.015 Q 778.697 593.024 778.720 593.080 Q 778.743 593.135 778.872 593.008 Q 779.000 592.881 780.191 593.000 Q 781.382 593.118 781.869 593.579 Q 782.356 594.040 782.729 594.278 Q 783.102 594.516 783.381 594.654 Q 783.659 594.793 784.176 594.944 Q 784.692 595.095 784.835 595.121 Q 784.977 595.147 784.782 595.101 Q 784.588 595.055 785.160 595.110 Q 785.732 595.166 786.295 595.257 Q 786.859 595.349 787.115 595.168 Q 787.371 594.986 787.964 594.438 Q 788.557 593.889 788.449 593.957 Q 788.340 594.024 788.386 594.054 Q 788.433 594.084 788.596 593.740 Q 788.759 593.396 789.053 592.284 Q 789.347 591.172 789.304 591.222 Q 789.260 591.272 789.283 590.972 Q 789.306 590.672 789.309 590.694 Q 789.313 590.716 789.344 588.888 Q 789.376 587.060 789.005 586.322 Q 788.634 585.584 787.838 584.438 Q 787.042 583.292 783.517 581.547 Q 779.992 579.803 777.835 579.307 Q 775.679 578.811 774.700 578.107 Q 773.721 577.404 773.428 577.106 Q 773.136 576.809 772.637 576.365 Q 772.138 575.922 772.259 576.055 Q 772.380 576.188 771.614 575.668 Q 770.847 575.147 769.373 573.371 Q 767.899 571.594 767.347 570.706 Q 766.794 569.818 766.182 569.160 Q 765.570 568.502 765.326 568.386 Q 765.081 568.271 763.707 566.526 Q 762.334 564.781 761.691 563.811 Q 761.049 562.841 760.852 562.686 Q 760.656 562.531 760.615 562.510 Q 760.575 562.490 760.691 562.564 Q 760.807 562.638 760.204 562.175 Q 759.600 561.712 759.382 561.568 Q 759.163 561.425 758.833 561.282 Q 758.503 561.138 758.302 561.035 Q 758.102 560.933 757.797 560.796 Q 757.492 560.659 757.080 560.525 Q 756.669 560.390 756.701 560.406 Q 756.733 560.423 756.781 560.415 Q 756.830 560.408 756.312 560.261 Q 755.795 560.114 755.135 559.997 Q 754.474 559.881 753.754 559.506 Q 753.034 559.131 752.523 558.671 Q 752.011 558.211 751.882 558.078 Q 751.753 557.945 751.762 558.002 Q 751.771 558.059 751.862 558.084 Q 751.953 558.109 751.456 557.722 Q 750.959 557.336 750.201 557.219 Q 749.443 557.101 746.812 558.152 Q 748.695 557.394 750.578 556.602 "></path>
    <path id="STROKE_0b49879f-3e5a-45ec-a253-f199e9e557b7" opacity="1.000" fill="none" stroke="#000000" stroke-width="5.016" stroke-opacity="1.000" stroke-linecap="round" stroke-linejoin="round" d="M 656.936 680.196 Q 656.936 680.196 656.744 680.721 Q 656.553 681.246 656.536 681.188 Q 655.995 682.150 656.137 681.868 Q 655.949 681.996 655.525 682.088 Q 655.101 682.180 655.299 682.114 Q 654.602 680.898 654.738 681.110 Q 654.247 679.963 653.648 679.274 Q 653.048 678.586 651.896 677.016 Q 650.744 675.445 650.093 674.524 Q 649.441 673.603 648.888 673.014 Q 648.335 672.425 648.200 672.277 Q 648.065 672.129 647.868 671.931 Q 647.671 671.733 647.403 671.285 Q 647.135 670.838 646.533 669.960 Q 645.930 669.082 645.183 668.396 Q 644.436 667.710 643.797 667.026 Q 643.158 666.342 643.191 666.366 Q 643.224 666.391 643.200 666.358 Q 643.176 666.325 643.114 666.226 Q 643.052 666.126 643.057 666.189 Q 643.062 666.252 642.677 665.573 Q 642.292 664.894 642.083 664.449 Q 641.875 664.004 641.371 663.307 Q 640.868 662.610 640.832 662.530 Q 640.796 662.449 640.907 662.719 Q 641.018 662.988 639.960 661.622 Q 638.903 660.256 638.666 659.911 Q 638.430 659.567 637.769 658.300 Q 637.108 657.033 636.608 656.111 Q 636.108 655.189 636.104 655.245 Q 636.100 655.302 636.128 655.327 Q 636.156 655.352 635.361 654.458 Q 634.565 653.564 634.511 653.525 Q 634.457 653.485 634.763 653.836 Q 634.725 653.836 634.571 653.836 Q 634.115 653.585 634.125 653.591 Q 633.854 653.566 633.297 653.349 Q 632.741 653.131 632.803 653.144 Q 632.260 652.974 632.252 653.004 Q 632.244 653.035 632.352 653.033 Q 632.461 653.031 631.704 652.880 Q 630.947 652.729 630.439 652.668 Q 629.931 652.606 629.929 652.632 Q 628.385 652.632 628.557 652.632 Q 628.728 652.632 628.640 652.631 Q 628.551 652.631 628.023 652.718 Q 627.494 652.805 627.330 652.854 Q 627.166 652.902 627.254 652.910 Q 626.541 653.345 626.497 653.367 Q 626.453 653.388 626.539 653.390 Q 626.644 653.690 626.425 653.278 Q 626.206 652.866 625.782 655.021 Q 625.358 657.176 625.419 658.804 Q 625.480 660.433 625.468 661.077 Q 625.456 661.721 625.430 662.284 Q 625.403 662.846 625.365 662.969 Q 625.326 663.093 625.355 663.005 Q 625.384 662.918 625.299 663.388 Q 625.214 663.858 625.187 663.952 Q 625.159 664.047 625.195 663.890 Q 625.231 663.733 625.024 664.500 Q 624.818 665.267 624.432 665.958 Q 624.045 666.648 624.103 666.570 Q 624.476 666.067 623.388 667.807 Q 622.299 669.548 621.451 670.100 Q 620.603 670.653 620.171 670.836 Q 619.739 671.018 620.037 670.892 Q 620.336 670.765 619.732 670.892 Q 619.128 671.020 619.232 670.985 Q 619.337 670.950 619.311 670.953 Q 619.285 670.957 619.310 670.943 Q 619.335 670.928 619.334 670.923 Q 619.334 670.918 619.345 670.908 Q 619.357 670.898 619.356 670.890 Q 619.355 670.882 619.291 670.920 Q 619.226 670.959 618.730 671.322 Q 618.234 671.686 617.799 672.023 Q 617.365 672.361 617.426 672.344 Q 617.487 672.326 617.525 672.374 Q 617.564 672.422 614.358 675.557 Q 615.795 674.844 617.232 674.130 "></path>
    <path id="STROKE_79df6e8d-e9ed-41f7-96f8-3ba7a4094560" opacity="1.000" fill="none" stroke="#000000" stroke-width="5.016" stroke-opacity="1.000" stroke-linecap="round" stroke-linejoin="round" d="M 655.092 680.820 Q 655.239 680.746 654.784 681.623 Q 654.738 681.623 654.692 681.712 Q 654.654 681.712 654.615 681.712 Q 654.615 680.919 654.615 680.855 Q 654.615 680.791 654.615 680.954 Q 654.316 680.917 654.842 680.363 Q 655.367 679.808 656.014 679.156 Q 656.662 678.503 656.628 678.560 Q 656.595 678.616 656.753 678.521 Q 656.910 678.425 656.673 678.501 Q 656.436 678.578 657.621 677.788 Q 658.806 676.998 659.435 676.580 Q 660.064 676.161 660.768 676.052 Q 661.471 675.942 662.031 675.915 Q 662.591 675.888 662.644 675.865 Q 662.697 675.843 662.622 675.868 Q 662.547 675.894 662.654 675.855 Q 662.761 675.815 662.629 675.898 Q 662.496 675.980 663.057 675.786 Q 663.619 675.593 664.406 675.308 Q 665.192 675.022 665.174 675.033 Q 665.155 675.043 665.298 675.014 Q 665.441 674.984 665.700 674.994 Q 665.959 675.004 666.013 675.001 Q 666.067 674.998 666.403 674.999 Q 666.740 675.000 667.167 675.000 Q 667.594 675.000 667.519 675.000 Q 668.927 675.463 668.480 675.357 Q 669.061 675.911 669.683 676.771 Q 670.305 677.632 670.158 677.454 Q 670.011 677.276 670.099 677.395 Q 670.187 677.514 670.267 677.949 Q 670.347 678.385 670.295 678.324 Q 670.242 678.263 670.372 678.664 Q 670.502 679.065 670.945 679.908 Q 671.388 680.751 671.429 680.773 Q 671.470 680.795 671.688 681.054 Q 671.906 681.312 671.905 681.357 Q 671.904 681.401 672.734 682.752 Q 673.564 684.103 674.070 684.902 Q 674.576 685.701 674.729 686.491 Q 674.882 687.281 674.846 687.233 Q 674.810 687.184 674.823 687.320 Q 674.835 687.456 674.831 687.718 Q 674.826 687.981 674.828 688.083 Q 674.829 688.185 674.830 688.121 Q 674.831 688.058 674.833 688.145 Q 674.835 688.232 674.830 688.171 Q 674.825 688.110 674.818 687.988 Q 674.810 687.867 674.824 688.091 Q 674.837 688.315 674.823 688.064 Q 674.808 687.814 674.818 687.957 Q 674.828 688.100 674.818 687.969 Q 674.809 687.838 674.814 687.914 Q 674.819 687.990 674.818 687.919 Q 674.817 687.848 674.819 687.930 Q 674.821 688.011 674.859 689.134 Q 674.896 690.256 674.909 690.671 Q 674.922 691.086 674.905 690.733 Q 674.905 691.854 674.905 691.928 Q 674.905 692.002 674.905 691.848 Q 675.058 692.233 675.551 692.417 Q 675.989 691.101 676.350 689.785 "></path>
    <path id="STROKE_8203106e-3329-4016-867e-ca0a8bbce53f" opacity="1.000" fill="none" stroke="#000000" stroke-width="5.016" stroke-opacity="1.000" stroke-linecap="round" stroke-linejoin="round" d="M 687.617 715.343 Q 688.132 714.761 688.493 714.540 Q 688.034 715.203 688.055 715.064 Q 687.563 715.427 687.579 715.387 Q 687.279 715.543 687.201 715.574 Q 687.122 715.605 687.169 715.584 Q 687.217 715.563 687.202 715.570 Q 687.186 715.577 687.194 715.574 Q 687.201 715.571 687.201 715.571 Q 687.201 715.572 687.204 715.571 Q 687.208 715.570 687.221 715.572 Q 687.234 715.574 686.365 715.909 Q 685.496 716.243 685.696 716.235 Q 685.657 716.235 685.296 716.235 Q 685.202 715.730 685.252 716.115 Q 685.303 716.499 685.339 714.319 Q 685.375 712.139 684.864 710.780 Q 684.354 709.420 683.805 707.882 Q 683.256 706.343 682.925 705.187 Q 682.595 704.031 682.250 703.368 Q 681.904 702.706 681.662 702.335 Q 681.419 701.965 681.214 701.662 Q 681.008 701.360 680.874 701.227 Q 680.740 701.095 680.951 701.284 Q 681.161 701.473 680.215 700.393 Q 679.268 699.313 678.598 698.740 Q 677.928 698.168 678.033 698.244 Q 678.138 698.321 678.089 698.251 Q 678.040 698.182 678.081 698.298 Q 678.121 698.414 677.698 697.702 Q 677.276 696.990 677.291 696.956 Q 677.306 696.922 677.306 696.943 Q 677.306 696.965 677.305 696.943 Q 677.304 696.922 677.321 696.961 Q 677.338 697.000 677.313 696.930 Q 677.288 696.860 677.274 696.829 Q 677.260 696.799 677.162 696.603 Q 677.064 696.406 676.607 695.545 Q 676.150 694.683 675.883 694.246 Q 675.616 693.809 675.684 693.928 Q 675.751 694.047 675.835 694.101 Q 675.525 692.962 675.527 692.973 Q 675.530 692.984 675.551 693.053 Q 675.512 692.930 675.305 692.261 Q 674.668 693.432 676.932 699.359 Q 679.197 705.286 680.539 711.596 Q 680.365 711.564 681.469 711.663 Q 681.375 711.372 681.899 712.736 Q 682.422 714.100 682.517 714.650 Q 682.611 715.199 682.575 715.064 Q 682.777 716.059 682.745 715.911 Q 682.504 715.256 682.912 716.622 Q 683.320 717.988 683.689 720.215 Q 684.058 722.442 684.154 724.039 Q 684.251 725.635 684.458 726.225 Q 684.666 726.815 684.635 726.652 Q 684.605 726.490 684.622 726.532 Q 684.639 726.574 684.758 727.106 Q 684.877 727.638 684.892 727.797 Q 684.908 727.956 684.900 728.126 Q 684.892 728.296 684.851 728.315 Q 684.810 728.334 684.889 728.514 Q 684.968 728.693 684.917 730.781 Q 684.866 732.869 684.483 734.099 Q 684.100 735.329 683.991 735.870 Q 683.883 736.410 683.848 736.114 Q 683.812 735.817 683.533 738.263 Q 683.254 740.708 683.056 742.209 Q 682.858 743.711 682.883 744.374 Q 682.908 745.036 682.897 745.634 Q 682.887 746.232 682.906 746.037 Q 682.925 745.841 682.889 746.368 Q 682.853 746.894 682.826 747.097 Q 682.800 747.300 682.764 747.608 Q 682.729 747.916 682.692 748.269 Q 682.656 748.622 682.664 748.658 Q 682.672 748.694 682.669 748.773 Q 682.666 748.852 682.667 749.416 Q 682.668 749.980 682.668 749.930 Q 682.667 749.880 682.668 749.878 Q 682.669 749.876 682.661 750.958 Q 682.653 752.041 682.660 752.809 Q 682.666 753.577 682.714 754.173 Q 682.762 754.770 682.754 754.736 Q 682.746 754.703 682.720 754.633 Q 682.694 754.562 682.898 755.061 Q 682.937 755.061 683.259 755.061 Q 683.821 753.299 684.343 751.538 "></path>
    <path id="STROKE_25c9f841-c6ff-4826-a33f-f656d8150e3f" opacity="1.000" fill="none" stroke="#000000" stroke-width="5.016" stroke-opacity="1.000" stroke-linecap="round" stroke-linejoin="round" d="M 851.623 502.353 Q 851.837 502.145 851.082 502.882 Q 851.083 502.881 851.112 502.852 L 851.038 502.925 Q 851.230 503.116 853.110 504.979 Q 854.991 506.842 856.041 507.883 Q 857.092 508.923 858.004 509.827 Q 858.916 510.731 860.709 512.507 Q 862.502 514.284 863.600 515.372 Q 864.698 516.459 865.712 517.465 Q 866.727 518.470 867.712 519.446 Q 868.698 520.423 869.134 520.854 Q 869.569 521.286 869.864 521.578 Q 870.158 521.869 870.957 522.661 Q 871.755 523.452 872.392 524.083 Q 873.030 524.714 873.342 525.024 Q 873.655 525.334 874.772 526.441 Q 875.890 527.548 876.429 528.083 Q 876.969 528.618 877.664 529.306 Q 878.358 529.994 879.284 530.911 Q 879.451 530.747 879.964 530.246 Q 880.478 529.745 880.923 529.311 Q 881.367 528.876 882.049 528.211 Q 882.730 527.546 883.627 526.671 Q 884.524 525.795 886.061 524.295 Q 886.026 524.260 880.581 518.865 Q 875.136 513.470 871.963 510.326 Q 868.789 507.182 867.427 505.832 Q 866.064 504.482 865.419 503.843 Q 864.774 503.204 863.991 502.428 Q 863.208 501.652 862.664 501.113 Q 862.120 500.574 861.186 499.649 Q 860.253 498.724 859.781 498.257 Q 859.309 497.790 858.925 497.409 Q 858.541 497.028 857.815 496.309 Q 858.011 496.118 856.224 497.862 Q 854.438 499.606 853.433 500.587 Q 852.428 501.568 851.940 502.044 Q 851.452 502.521 851.038 502.925 L 851.441 502.531 "></path>
    <path id="STROKE_d9674037-08bb-4013-bebd-84297efc523d" opacity="1.000" fill="none" stroke="#000000" stroke-width="5.016" stroke-opacity="1.000" stroke-linecap="round" stroke-linejoin="round" d="M 896.067 459.646 Q 896.144 459.570 896.429 459.288 Q 896.476 459.241 895.756 459.954 Q 895.035 460.667 894.121 461.571 Q 893.207 462.476 892.101 463.569 Q 890.996 464.663 889.274 466.366 Q 887.553 468.069 884.731 470.860 Q 881.910 473.651 880.029 475.511 Q 878.148 477.372 865.384 489.998 L 866.011 490.611 Q 865.957 490.558 865.746 490.352 Q 865.750 490.355 865.760 490.365 Q 865.752 490.357 865.705 490.311 Q 865.904 490.506 865.945 490.546 Q 865.986 490.586 865.961 490.562 Q 866.062 490.660 867.921 492.478 Q 869.779 494.295 872.116 496.580 Q 874.453 498.864 875.633 500.018 Q 876.813 501.172 877.769 502.107 Q 878.726 503.043 882.805 507.031 Q 886.885 511.020 893.119 517.115 L 895.092 515.164 Q 894.953 515.301 895.003 515.253 Q 894.991 515.264 894.982 515.273 Q 894.731 515.521 924.623 485.951 Q 924.596 485.925 919.393 480.837 Q 914.189 475.749 911.428 473.050 Q 908.667 470.350 907.287 469.001 Q 905.907 467.652 903.712 465.505 Q 901.516 463.359 896.888 458.834 Q 897.070 458.654 895.800 459.910 Q 895.786 459.924 896.033 459.680 "></path>
    <path id="STROKE_283d8f5c-104a-4663-b441-bf3926a08dce" opacity="1.000" fill="none" stroke="#000000" stroke-width="5.016" stroke-opacity="1.000" stroke-linecap="round" stroke-linejoin="round" d="M 855.538 408.860 Q 855.763 408.635 856.203 408.197 L 856.311 408.302 Q 856.235 408.228 856.203 408.197 Q 855.837 408.561 853.694 410.696 Q 851.552 412.832 850.503 413.877 Q 849.454 414.922 846.562 417.804 Q 843.670 420.686 840.582 423.763 Q 837.495 426.840 835.925 428.405 Q 834.355 429.969 833.738 430.584 Q 833.121 431.198 831.447 432.867 Q 829.772 434.537 827.658 436.643 Q 825.544 438.749 824.096 440.193 Q 822.647 441.636 821.140 443.139 Q 819.632 444.641 814.660 449.596 Q 816.106 450.999 816.706 451.581 Q 816.828 451.699 816.177 451.067 Q 816.346 451.231 816.312 451.199 Q 816.501 451.382 816.490 451.372 Q 816.688 451.563 816.683 451.558 Q 817.263 452.121 820.395 455.161 Q 823.527 458.201 826.349 460.940 Q 829.171 463.679 831.097 465.548 Q 833.023 467.417 834.110 468.472 Q 835.197 469.527 835.993 470.300 Q 836.789 471.073 839.279 473.489 Q 841.769 475.906 844.179 478.245 Q 846.590 480.585 847.782 481.742 Q 848.974 482.899 849.615 483.521 Q 850.255 484.143 851.499 485.350 L 851.961 484.889 Q 852.167 484.684 851.499 485.350 Q 851.675 485.174 851.665 485.184 Q 851.892 484.958 851.837 485.013 Q 852.167 484.684 852.056 484.794 Q 852.133 484.718 893.041 443.951 L 892.046 442.985 L 892.058 442.997 Q 892.008 442.948 887.785 438.850 Q 883.563 434.752 881.288 432.544 Q 879.014 430.337 878.007 429.359 Q 877.000 428.382 874.601 426.053 Q 872.202 423.725 869.101 420.716 Q 866.001 417.707 856.203 408.197 Q 856.118 408.282 855.976 408.422 Q 855.835 408.563 855.767 408.631 Q 855.893 408.505 856.203 408.197 "></path>
    <path id="STROKE_847bcd87-89dd-43f6-91ed-c27d7b47dd77" opacity="1.000" fill="none" stroke="#000000" stroke-width="5.016" stroke-opacity="1.000" stroke-linecap="round" stroke-linejoin="round" d="M 942.647 488.400 Q 942.373 488.688 942.466 488.590 Q 942.193 488.876 942.289 488.775 Q 942.038 489.038 942.104 488.969 Q 942.093 488.980 937.816 493.456 Q 933.539 497.931 930.104 501.525 Q 926.669 505.119 922.930 509.032 Q 919.190 512.945 916.911 515.330 Q 914.631 517.715 912.690 519.746 Q 910.750 521.777 908.585 524.041 Q 906.421 526.306 904.785 528.018 Q 903.148 529.731 899.638 533.403 L 901.810 535.411 L 901.774 535.378 Q 901.781 535.384 901.972 535.561 Q 901.959 535.549 901.944 535.535 Q 901.953 535.543 902.011 535.597 L 902.003 535.590 Q 901.868 535.465 902.371 535.929 Q 902.874 536.394 903.235 536.729 Q 903.597 537.063 905.045 538.401 Q 906.493 539.739 908.314 541.422 Q 910.135 543.105 911.593 544.453 Q 913.052 545.802 915.167 547.757 Q 917.282 549.712 921.097 553.238 Q 924.912 556.764 940.357 571.040 Q 941.458 569.887 944.535 566.667 Q 947.612 563.448 951.647 559.226 Q 951.569 559.308 949.372 561.606 "></path>
    <path id="STROKE_ca9ae5a9-f43c-4ffa-a223-9cb131927cd8" opacity="1.000" fill="none" stroke="#000000" stroke-width="5.016" stroke-opacity="1.000" stroke-linecap="round" stroke-linejoin="round" d="M 950.338 559.538 Q 950.331 559.545 950.306 559.571 L 950.310 559.568 Q 950.302 559.576 950.263 559.616 Q 949.944 559.947 952.884 556.898 Q 955.823 553.850 983.456 525.195 L 981.012 522.915 Q 981.253 523.140 981.234 523.123 Q 981.349 523.230 981.711 523.567 Q 981.879 523.724 980.516 522.453 Q 979.154 521.183 976.429 518.641 Q 973.704 516.100 971.493 514.037 Q 969.281 511.975 965.556 508.500 Q 961.831 505.026 942.809 487.285 "></path>
    <path id="STROKE_9c6c4a27-1118-46f2-b963-e564a8ebb49f" opacity="1.000" fill="none" stroke="#000000" stroke-width="5.016" stroke-opacity="1.000" stroke-linecap="round" stroke-linejoin="round" d="M 940.353 489.832 Q 939.327 490.896 937.536 492.754 Q 935.745 494.611 932.651 497.819 Q 929.557 501.028 922.271 508.584 Q 914.984 516.140 911.005 520.267 Q 907.025 524.394 905.334 526.147 Q 903.643 527.901 902.828 528.746 Q 902.013 529.591 898.726 533.000 L 900.406 534.567 Q 900.401 534.562 900.396 534.557 Q 900.627 534.773 900.551 534.702 L 900.577 534.726 Q 900.625 534.771 900.366 534.529 Q 900.661 534.805 900.568 534.717 Q 900.796 534.930 900.768 534.905 Q 900.870 534.999 905.604 539.415 Q 910.338 543.830 913.539 546.815 Q 916.739 549.800 918.392 551.342 Q 920.045 552.883 921.673 554.401 Q 923.301 555.920 939.373 570.910 Q 941.819 568.373 942.597 567.566 L 942.585 567.579 L 942.592 567.571 Q 942.581 567.583 942.556 567.608 L 942.750 567.407 "></path>
    <path id="STROKE_53e9732a-c7ae-4da5-8c30-f48702367ce5" opacity="1.000" fill="none" stroke="#000000" stroke-width="5.016" stroke-opacity="1.000" stroke-linecap="round" stroke-linejoin="round" d="M 921.627 434.178 Q 921.693 434.111 921.662 434.143 Q 921.630 434.174 921.769 434.035 Q 921.907 433.896 921.990 433.813 Q 922.073 433.729 922.063 433.739 Q 922.053 433.749 922.068 433.734 Q 922.083 433.719 922.438 433.362 Q 922.429 433.370 922.402 433.398 Q 922.561 433.238 922.844 432.953 Q 922.615 433.183 922.533 433.266 Q 922.451 433.348 922.456 433.344 Q 922.460 433.339 922.324 433.477 Q 922.187 433.614 921.791 434.013 Q 921.394 434.412 920.478 435.334 Q 919.562 436.256 917.896 437.932 Q 916.230 439.609 915.435 440.409 Q 914.640 441.209 914.053 441.801 Q 913.465 442.392 913.191 442.667 Q 912.917 442.943 912.675 443.187 Q 912.432 443.432 911.822 444.045 Q 911.212 444.659 910.471 445.405 Q 909.729 446.152 904.330 451.585 L 904.544 451.790 L 904.541 451.787 Q 904.570 451.815 904.575 451.820 Q 904.580 451.825 904.595 451.840 Q 904.611 451.855 904.596 451.841 Q 904.581 451.826 904.729 451.968 Q 904.876 452.110 904.808 452.044 Q 904.739 451.978 904.901 452.133 Q 905.062 452.288 905.045 452.272 Q 905.028 452.256 905.591 452.797 Q 906.153 453.337 906.833 453.990 Q 907.512 454.642 907.861 454.978 Q 908.211 455.314 908.764 455.845 Q 909.316 456.377 910.739 457.744 Q 912.161 459.111 913.817 460.701 Q 915.472 462.292 917.196 463.949 Q 918.921 465.606 920.026 466.668 Q 921.132 467.731 921.940 468.508 Q 922.749 469.285 923.369 469.880 Q 923.988 470.476 924.446 470.916 Q 924.903 471.355 925.606 472.030 Q 926.308 472.705 927.412 473.766 Q 928.515 474.826 929.124 475.411 Q 929.733 475.996 930.101 476.350 Q 930.469 476.704 932.626 478.776 Q 933.624 477.772 933.626 477.770 Q 933.622 477.773 933.616 477.780 L 933.619 477.777 Q 933.484 477.912 933.516 477.880 Q 933.472 477.925 933.333 478.064 Q 933.501 477.895 933.469 477.927 Q 933.471 477.926 934.675 476.714 Q 935.879 475.503 936.845 474.530 Q 937.811 473.558 938.276 473.090 Q 938.741 472.622 939.221 472.139 Q 939.701 471.656 940.052 471.302 Q 940.404 470.949 941.763 469.581 Q 943.122 468.213 943.831 467.499 Q 944.540 466.786 944.851 466.473 Q 945.161 466.161 945.150 466.172 Q 945.138 466.184 945.447 465.873 Q 945.755 465.563 946.240 465.075 Q 946.725 464.587 948.577 462.724 Q 948.578 462.723 948.494 462.807 Q 948.410 462.891 948.434 462.867 Q 948.458 462.843 948.445 462.856 Q 948.432 462.869 948.418 462.883 Q 948.404 462.897 948.322 462.980 Q 948.240 463.062 948.237 463.065 Q 948.234 463.068 948.261 463.041 Q 948.288 463.014 948.150 463.152 Q 948.246 463.057 948.255 463.047 Q 948.265 463.037 948.248 463.054 Q 948.231 463.072 948.230 463.072 Q 948.229 463.073 948.370 462.931 Q 948.512 462.789 948.497 462.804 Q 948.628 462.672 948.677 462.622 Q 948.726 462.573 948.725 462.574 Q 948.724 462.576 948.741 462.559 Q 948.757 462.541 948.862 462.437 Q 948.966 462.332 949.189 462.107 Q 949.413 461.882 949.573 461.721 Q 949.733 461.560 949.898 461.394 Q 949.891 461.400 949.857 461.435 Q 949.745 461.548 950.085 461.206 Q 950.425 460.863 950.704 460.582 Q 950.984 460.301 951.347 459.935 Q 951.340 459.943 950.371 460.918 "></path>
    <path id="STROKE_20e1f886-8eb6-41c6-9973-8ee783ef2fc1" opacity="1.000" fill="none" stroke="#000000" stroke-width="5.016" stroke-opacity="1.000" stroke-linecap="round" stroke-linejoin="round" d="M 949.703 432.014 Q 949.641 431.962 949.596 431.924 Q 949.550 431.886 949.358 431.730 Q 949.367 431.737 949.378 431.746 Q 949.348 431.727 949.275 431.656 Q 949.202 431.585 948.712 431.242 Q 948.222 430.900 947.954 430.706 Q 947.686 430.513 946.718 429.936 Q 945.750 429.359 944.546 428.881 Q 943.342 428.404 942.775 428.241 Q 942.208 428.079 941.662 427.939 Q 941.117 427.800 940.313 427.659 Q 939.510 427.518 938.602 427.427 Q 937.693 427.336 936.478 427.375 Q 935.262 427.414 934.510 427.507 Q 933.759 427.600 932.698 427.814 Q 931.636 428.027 930.551 428.400 Q 929.465 428.772 928.769 429.097 Q 928.074 429.423 927.682 429.620 Q 927.291 429.817 926.693 430.176 Q 926.096 430.534 925.713 430.805 Q 925.330 431.075 925.032 431.265 Q 924.733 431.454 922.796 433.227 Q 922.842 433.204 923.510 432.558 Q 924.178 431.912 925.384 431.042 Q 926.590 430.172 927.955 429.490 Q 929.320 428.809 930.681 428.360 Q 932.043 427.910 933.486 427.657 Q 934.929 427.405 936.252 427.385 Q 937.576 427.365 938.527 427.424 Q 939.479 427.483 940.779 427.751 Q 942.079 428.018 942.997 428.309 Q 943.916 428.599 944.946 429.052 Q 945.977 429.505 946.719 429.942 Q 947.461 430.379 947.796 430.590 Q 948.131 430.802 948.721 431.240 Q 949.310 431.678 949.688 432.000 Q 950.066 432.322 950.335 432.577 Q 950.604 432.832 951.171 433.385 Q 951.739 433.939 952.417 434.816 Q 953.095 435.693 953.446 436.262 Q 953.796 436.830 954.104 437.296 Q 954.413 437.761 954.936 439.035 Q 955.459 440.308 955.702 441.036 Q 955.945 441.764 956.221 443.097 Q 956.497 444.430 956.542 445.807 Q 956.587 447.185 956.493 448.170 Q 956.398 449.156 956.275 449.910 Q 956.152 450.664 955.817 451.932 Q 955.482 453.200 954.879 454.527 Q 954.275 455.854 953.628 456.858 Q 952.982 457.861 952.579 458.366 Q 952.176 458.871 951.912 459.183 Q 951.648 459.494 950.981 460.193 "></path>
  </g>
</svg>